# xmcd CD database file
#
# Track frame offsets:
#	150
#	12830
#	25892
#	42637
#	55435
#	70592
#	85680
#	100130
#	115037
#	129197
#	143565
#	157337
#	168887
#	183822
#	198912
#	213212
#	228612
#	242897
#	255122
#	267277
#
# Disc length: 3795 seconds
#
# Revision: 0
# Processed by: cddbd v1.5.2PL0 Copyright (c) Steve Scherf et al.
# Submitted via: ACXtractor (MTCDDB.DLL V2003.07.15)
#
DISCID=050ed114
DTITLE=Leann Rimes - Blue
DYEAR=1997
DGENRE=Country
TTITLE0=Blue
TTITLE1=Hurt Me
TTITLE2=One Way Ticket
TTITLE3=My Baby
TTITLE4=Honestly
TTITLE5=The Light in Your Eyes
TTITLE6=Talk to Me
TTITLE7=I'll Get Even With You
TTITLE8=Cattle Call with Eddy Arnold
TTITLE9=Good Lookin' Man
TTITLE10=Fade to Blue
TTITLE11=I Want to be a Cowboys Sweatheart
TTITLE12=Blue Moon of Kentucky
TTITLE13=River of Love
TTITLE14=The Rest is History
TTITLE15=Broken Wing
TTITLE16=Yesterday
TTITLE17=Sure Thing
TTITLE18=Share My Love
TTITLE19=Unchained Melody
EXTD=ID3G:   2 YEAR: 1997
EXTT0=
EXTT1=
EXTT2=
EXTT3=
EXTT4=
EXTT5=
EXTT6=
EXTT7=
EXTT8=
EXTT9=
EXTT10=
EXTT11=
EXTT12=
EXTT13=
EXTT14=
EXTT15=
EXTT16=
EXTT17=
EXTT18=
EXTT19=
PLAYORDER=
